<svg id="visual" viewBox="0 0 960 540" width="960" height="540" xmlns="http://www.w3.org/2000/svg" xmlns:xlink="http://www.w3.org/1999/xlink" version="1.1"><rect x="0" y="0" width="960" height="540" fill="#5e86a8"></rect><path d="M0 381L32 380.7C64 380.3 128 379.7 192 383.2C256 386.7 320 394.3 384 389.2C448 384 512 366 576 358.3C640 350.7 704 353.3 768 361.8C832 370.3 896 384.7 928 391.8L960 399L960 541L928 541C896 541 832 541 768 541C704 541 640 541 576 541C512 541 448 541 384 541C320 541 256 541 192 541C128 541 64 541 32 541L0 541Z" fill="#FFFFFF" stroke-linecap="round" stroke-linejoin="miter"></path></svg>